<?xml version="1.0" encoding="utf-8"?>
<!-- Generator: Adobe Illustrator 24.1.3, SVG Export Plug-In . SVG Version: 6.00 Build 0)  -->
<svg version="1.1" id="Layer_1" xmlns:xodm="http://www.corel.com/coreldraw/odm/2003"
	 xmlns="http://www.w3.org/2000/svg" xmlns:xlink="http://www.w3.org/1999/xlink" x="0px" y="0px" viewBox="0 0 464.3 356.9"
	 style="enable-background:new 0 0 464.3 356.9;" xml:space="preserve">
<style type="text/css">
	.st0{fill:#D2A650;}
</style>
<g id="Layer_x0020_1">
	<g id="_1899780420848">
		<path class="st0" d="M402.9,238.2l16.4-12.8c0,0,0,0,0.1,0c0,0,0.1,0,0.1-0.1c0,0,0,0,0.1-0.1c0,0,0.1-0.1,0.1-0.1c0,0,0,0,0,0
			c0,0,0,0,0,0c0,0,0-0.1,0.1-0.1c0,0,0-0.1,0.1-0.1c0,0,0-0.1,0-0.1c0,0,0,0,0-0.1c0,0,0,0,0-0.1c0-0.1,0-0.2,0-0.3v-74.6h23.9
			l-14.1,43.9c-0.1,0.3-0.1,0.6,0,0.9l14.1,43.9L402.9,238.2L402.9,238.2z M42.6,222.9v-74.6v-13.9h30.2h12h290.1h12H417v13.9v74.6
			H42.6L42.6,222.9z M229.8,340.7c-73.2,0-135-48.5-155.2-115.1h9.1c19.9,61.7,77.7,106.3,146,106.3c68.3,0,126.2-44.6,146-106.3
			h9.1C364.8,292.2,303,340.7,229.8,340.7L229.8,340.7z M333.6,287.7l-3.8-4.7c-2.2-0.7-5.3-0.3-7.4-1c-1.1-0.3-4.3-3.4-5.8-4.3
			c-2.4-1.3-6-2-8-3.2c-1.6-1-9.1-8.8-10.7-10.6c-1.6-1.9-2.7-4.5-4-6.1c-0.9-1.1-3.1-1.8-4.1-2.9c-1.1-1.3-2.4-4-3.4-5.5l-0.6-0.3
			c-1.1-0.3-7.1-0.3-8.1,0c-1.9,0.8-7.6,6.3-9.9,7.9c-3.8,2.7-8.1,3.8-11.2,5.9c-0.8,0.5-1.6,1.7-2.2,2c-3.5,1.2-8.4-0.6-11.5,2.5
			l-2.1-2.1c-2,1.2-3.2,0.6-4.9-0.7l-1.4,1.1c-0.4-0.8-1.6-0.9-2.1-1.4c-0.3-0.3-0.3-1-0.6-1.3c-0.9-0.9-9-0.2-10.9-1.1l-4.2,2.7
			c-2.9-3.7-7-3.4-11.2-3.7c-0.6,0-1.1,0.3-1.7,0.3c-0.5-0.1-1.7-2-2.1-2.5c-5.9-7.9-7.6-13.4-16.7-18.9c-5.9-3.6-13.7-4-20.5-4
			c-0.6,0-1.2-0.2-1.8-0.3c-4.6,3.7-10.4,6.5-15.2,10c-2.2,1.6-10.9,9.6-12.4,11.7c-1.5,2-2.6,6.8-5.3,8.4c-0.7,0.4-1.3,0.2-1.9,0.5
			c-1.1,0.5-4.3,4-5.5,4.3c-0.7,0.2-1.3-0.3-1.9-0.2c-0.9,0.1-2.1,0.9-3,1.2c-1.2,0.3-3.4,0.3-4.2,0.7c-0.1,0-0.6,0.4-1.1,0.7
			c-11.1-13.9-19.8-29.7-25.4-46.9h286.2C365.1,249.5,351.4,270.8,333.6,287.7L333.6,287.7z M160.4,280.4c-1-0.4-1.3-1.4-1.9-2.1
			c-0.3-0.3-0.9-0.2-1.2-0.6c-0.5-0.6-1.4-3.1-1.7-4c0.9,0.9,1.5,2.1,2.3,3.1C158.6,277.8,160.3,278.8,160.4,280.4L160.4,280.4z
			 M163.2,280.1c-0.8,0.9-3-3.5-3.1-4c-0.1-0.2-0.1-0.6,0.2-0.5l2.3,1c0.8-0.9-3.6-4-4-4.9c-0.3-0.7-0.5-3.3-0.9-4.2
			c0.4,0.3,1.1,0.2,1.3,0.4c0.2,0.1,1.4,3.3,1.8,4c0.4,0.8,2.4,3.2,2.4,3.5C163.5,276.7,163.1,278.7,163.2,280.1L163.2,280.1z
			 M214.1,296.9c-1-1.2-2.9-1.4-3.7-3c-0.7-1.6,2.3,1.1,2.4,1.2l-1.7-3.1c2.4,0.5,2.7,3.1,3.6,4.7c1.1,2,2.3,4.2,3.8,5.8
			c-0.1-1.3,0.5-1.5,1.8-1.4c0.6,0.5-2.2,2.1-2.6,2.2c-1.5,0.5-1.3-0.8-2-1.8l1-0.2C215.6,300.2,215,298,214.1,296.9L214.1,296.9z
			 M248.3,308.7l4.5,1.4c-1,2-2.4,0.7-3.7-0.3C248.6,309.5,248.1,309.5,248.3,308.7z M239.2,305.6c2.9,0.9,5.7,2.3,7.7,4.5
			C244.1,309.2,240.6,308.2,239.2,305.6z M236.4,305.9c-0.3,0.2-1.7-0.5-2-0.8c-0.2-0.2-2.4-4.2-2.6-4.6c-0.1-0.2-0.1-0.6,0.2-0.5
			c0.9,0.7,1.4,2.1,2.6,1.4l0.4,1l-1-0.3C233.4,302.8,236.1,305.2,236.4,305.9L236.4,305.9z M301.8,307l-3.1,1.1
			c-0.9-2-0.1-2.6,0-4.5C299.2,303.9,302.2,306.5,301.8,307L301.8,307z M298.6,300.7c2.1,0.7,6.4,3.2,4,5.6
			C301.8,304,299.2,303.1,298.6,300.7z M329.1,287.1l-2.2-0.4l-0.4,0.7l-2.1-1.7c-0.6-0.3-0.6,0.4-0.5,0.8c0.1,0.3,2.4,2.6,2.6,2.7
			c0.9,0.3,0.4-0.9,0.5-1c0.9-0.2,1.9,0.7,2.6,0.7c0.8,0,0.9-1.2,1.9,0.2c0,1-14.2,6.8-16,7.8c-0.3,0.2-0.5,0.4-0.4,0.8l-2.1-0.7
			c-0.1,0.1,0.3,1.4-0.5,1c-0.4-0.1-4.3-4-4.7-3.5c-0.6,1.7,4.9,4.7,4.9,5.1l-1.9,1.2c-2.5-0.1-7.1-11.1-9.8-12.6
			c-0.8,0.7,1.2,2.4,0.9,2.8l-1.4-1l0.3,1.7c-1.8,0-1.5-1.9-2.4-3.1l1.1,0l-0.4-1.4l1.4-0.5c-0.8-1.6-1.3-1.7-2.8-2.3
			c-0.1,1.4-1.9,1.4-2.5,1.9c-0.4,0.4-0.1,1.3-0.7,1.2c-1.6-2.3-4.4-7-1.1-8.7l0.7,1.6c-1.5,0.4,0,1.6,0,2.8c0,0.9-0.5,1.7-0.4,2.6
			c1.6,0.4,1.2-1.5,2.3-2c0.5,0.3,1,0.4,1.6,0.6c0-0.7,0-1.1-0.4-1.7l1.1,0c0.1-0.4,0-0.7-0.2-1.1c-0.1-0.3-3.3-5.7-3.5-6
			c-0.3-0.3-0.8,0-0.8,0c-0.5-0.6-1.4-2.9-2.3-3.7c-0.4-0.3-1.2-0.4-1.3-0.5c-0.2-0.3,0.4-1.3,0.3-1.8c-0.1-0.6-1.2-1-1.2-1.5
			c-0.1-0.6,0.8-1.2,0.4-2.3c-0.3-1.1-3.3-3.2-3.3-3.7c0.8-2.2,2.1-3.8,2.2-6.1c1,1.1,3.1,1.9,4,3c0.7,0.8,1.4,2.4,2.2,3.4
			c2.8,3.6,9,10.8,12.7,13.2c2,1.3,5.7,2.1,8.1,3.4c2.7,1.5,4.3,3.8,7.4,4.5c0.4,0.1,7.4,0.7,6.4,1.5c-0.4,0.1-3.2-0.5-3.2,0.2
			C326.3,286.6,329.3,285.5,329.1,287.1L329.1,287.1z M276.9,300.5c0.7-0.8,5.1-9.2,6.3-8.2c-0.3,0.7-0.5,1.5-0.7,2.3
			c-0.1,0.5-0.7,0.6,0.2,1.2c1.3-1.2,1.5-3.1,1.6-4.8l6.4-3.9c1.3,2.3-1.4,3.4-2.5,4.7c-0.4,0.5-2.6,3.3-2.2,3.7
			c1.1,0.2,3-3.5,3.3-3.5c1.5,1.2-1.2,3-1.7,4.3c-0.3,0.9,0.6,1.5-0.6,1.8c0,0.7,2.2,3.5,3.2,2.8l-1.4-2.8c1.5-0.2,3,1.6,4.4,2.3
			l0.4-0.7c0.6,0,1.1,0.2,1.6,0.5c0.3,0.2,2.2,2,2.3,2.1c0.7,1.7-0.8,5.5,0.1,7.6c-1.6,0.1-1.5-1.9-3.1-1.4
			c-0.1,0.1,1.7,2.1,0.2,2.1c-1.4-2.1-3.3-4-4.7-6.1c-0.6-0.9-0.4-2.8-2.4-2.6c0.1-0.7,1.1,0,0.6-1.2c0-0.1-1.3-1.7-1.5-1.9
			c-0.2-0.2-0.9-0.1-1.1-0.4c-0.1-0.1-0.5-2.4-0.5-2.7c0-1,1-2.4,1.1-3.7c0-0.3,0.4-1.4-0.3-1.3c-0.5,0-2.3,6.1-2.2,6.8
			c0.1,0.5,3.1,5.5,3.6,6.2c2,2.6,5.6,4.7,6.1,8.4l-1.2-1.1c-0.3,0,0.2,1.4-1.4,1.4c-2.2-0.1-3.9-6.4-7.2-5.9
			c0.6,1.3,2.9,2.2,2.6,3.5l-1.6-1c0.8,2.4,4.3,2,4.9,4.5c-1.4,0-2.7,0.1-4-0.4c-1.3-0.4-1.9-1.7-3.3-1.7l1.4,2.4l-1.7,0.4l0,1.3
			c-1.9-0.7-2.3,1.2-3.7,1.3c-1.2,0.1-2.8-0.9-3.6-1.8l2.1-0.2l-1.7-2.4l3.3,2.1l-1.6-2.8c1.1-0.1,1.7,1.1,2.5,1.6
			c0.3,0.2,0.9,0.1,1.3,0.3c0.1,0,0.5,1.7,0.8-0.1c0.2-0.2,1.2,0.9,1-0.2c-0.2-1.6-1.3-3.9-2.7-4.7c-0.5-0.3-1-0.1-1.4-0.3
			c-1.7-0.9-3.1-2.4-0.1-1.8c0-2.3-1.2-1.4-2.2-1.5c-0.2,0-1.5-0.2-1.3-0.7l1.9-3l3.7,2.8C280.5,303.4,277.5,300.7,276.9,300.5
			L276.9,300.5z M192.5,258c-0.2-0.5,0.3-1,0-1.8c-0.1-0.1-1.5-1.9-1.9-2.5c-1.9-0.6-0.6,0.8-0.5,1.3c0.4,1.4,0.4,2.7,1.9,3.8
			c0.1,0.3-0.4,0.2-0.5,0.2c-1.1-0.5-3.7-4.9-4.7-6.1c-1-1.2-3.5-1.9-0.3-3.2l-1.4-2.1l1.4-0.7c-1.2-1.5-3.6-4.5-0.7-5.3l8.3,6.9
			l8.2,12.8c-1,0.3-2.4,0.2-3.3,0.4c-1.3,0.4-0.9,1.3-3.5,0.9c-0.9-0.2-1.8-1.4-2.2,0.1l-1.9-2.4l1.5,0.4l0.3-0.6l0.6,0.3
			C194.1,259.4,192.7,258.6,192.5,258L192.5,258z M158.3,257c1.3-0.2,2.2-0.3,2.1-1.9c0-0.1-0.4-1.4-0.5-1.5c-0.2-0.2-2.6-1.3-2-1.8
			l5.2,0.3c0.7-0.7-2.5-2.6-2.8-3.3l2.1-0.5c0.2,2.2,2.7,2.1,4.1,3.5c1.4,1.4-0.9,2-1.2,3.5l-1-1.4c0.5,1.8-0.1,2.8-0.3,4.5
			c1.1-0.1,2.4,1,3.3,1.1c1.8,0.1,4.1-0.3,5.9-0.4c4.4-0.2,4.4,2.7,7.2,4.4c1.1,0.6,2.8,0.6,3.3,0.9c1.8,1.1,6.3,7.3,7.4,7.7
			c3,0.3,6.1,2,9.1,2.4c3,0.4,4.5-0.4,7.4,0.6c2.7,0.9,3.2-1.4,5.2-1.9c1.6-0.3,5.2,2.8,6.6,3.8c4.5,3.5,8.7,7.7,13,11.5
			c0.9,0.2,2.8-0.6,3.8-0.6c0.8,0,1.3,0.9,2.4,0.6c0.9-0.2,2.6-2.9,3.6-3.5c1.1-0.6,6.3,1.2,7.7,1.7c0.6,0.2,1,0.9,1.5,1
			c1.5,0.4,3.8-0.3,5.3,0.3c0.5,0.2,2.7,2.1,3,2.6c0.6,1.1,0.4,2.2,0.8,3.4c0.8,2.1,4,7.6,5.3,9.8c0.6,1,1.2,1.5,1.8,2.4
			c0.7,0.5,0.3-0.6,0.2-0.9c-1-2-3.2-5.1-3.8-7c-0.5-1.7-0.7-3.9-1.6-5.6c0.7-0.2,1.3,1,1.5,1.4c0.3,0.5,0.5,1.1,0.6,1.7l0.7,0
			l0.2-0.6l1,0.3c0.6,1.1,0.4,2.3,0.8,3.4c0.1,0.4,2.4,4.1,2.6,4.2c0.5,0.3,1.4-0.3,1.9-0.6c0.2,0.1,0.3,0.3,0.5,0.5
			c0.9,1.3,1,2.4-0.8,1.2l-0.2,0.6l-0.6-0.3l0.7,2.6l-0.5-0.1l-0.2,1c-0.8-0.2-0.9-3.3-2.1-1.9l1.7,4c-0.9-0.3-2-0.9-3-1
			c-1.3-0.1-2.1,0.3-3.1,0.3c-4.1-0.2-7.8-2.1-11.6-2.8l-0.4,0.7l-4.9-2.8c-0.6,0,0.2,1.4-0.7,1c-1.1-0.5-2.9-2.7-3.9-3.1
			c-0.6-0.3-0.6,0.4-0.5,0.8c0.3,0.9,2.2,2,2.7,2.9c0.1,0.3-0.4,0.2-0.5,0.2c-1.8-0.7-4.5-4.2-6-4.8c-1.9-0.8,0.1,2,0.6,2.4
			c-1.9,0.4-4-4.8-4.7-4.9l-0.3,1.7c-0.7-0.4-2.5-3.4-3.3-2.8l0.9,1.7c-1.2-0.9-2.7-3.3-4.2-3.5c-0.4-0.1-0.7,0.1-0.5,0.5
			c0.3,0.6,2.8,2.7,3.5,3.5c1.8,2.2,2.6,4.4,4.7,6.5c0.4,0.3,1.4,0.3,0.7,1c-2.6,0.3-2.5-1.8-3.3-3c-1-1.4-4.5-5.7-5.8-6.4
			c-0.7-0.4-1.3-0.1-1.8-0.3c-1.2-0.6-2.4-1.8-3.8-2.2c-0.1,2.7,2.5,2.2,3.7,4c-0.7,0.2-2.7-1-3.1-1.4c-1.1-1-1.6-2.8-2.3-4
			c-0.5-0.7-3.5-5.1-3.8-5.3c-1.2-0.5,0.2,1.8,0.3,2.1c0.8,1.4,1.9,2.3,2.6,3.4c0.7,1.2,0.9,3.1,2.1,4.1c-0.2,0.3-1.2,0.2-1.6,0.2
			c-1.5-0.3-3.9-7.2-7.4-8c-0.5-0.1-1.1,0.2-1.5,0.1c-1.1-0.4-4-3.4-5.4-4c-0.2-0.1-0.6-0.1-0.5,0.2l5.6,4.9c0,0.2-0.8,0.4-0.9,0.4
			c-0.3-0.1-3.8-3.3-4.5-3.7l-0.5,0.2c0.3,0.5,1.8,1.2,1.2,1.9c-1.2-1.2-2.6-2.7-4.4-2.8l3.5,3.7c-1,0.6-2.8-3.1-3.8-2.3l-0.2,1
			c-0.8-1.4-2.6-0.9-3.3-1.2c-1.7-0.7-5-3.2-7.3-3.6c-0.8-0.1-1.5,0.3-2,0.2c-0.6-0.1-1.7-1.9-2.7-1.1c0.5,0.3,3,3.7,0.9,2.9
			c-1.6-0.6-3.1-5.5-5.8-5.2l0,1.1l-1.4-0.4c-0.4,0.3,2.6,2.9,0.9,2.4c-1.4-0.4-2.6-2.6-3.5-3.5c-0.6-0.6-1.9-0.8-2.4-1.8
			c-1.5,0,0.7,1.2,0,1.7c-1-1-2-2-3.1-2.8c-0.5-0.4-1.2-0.2-1.5-0.4c-0.4-0.2-0.7-1.8-1.4-2c-0.9,0.1-1.4,0.4-1.2,1.4l-1.7-0.4
			c-0.2-0.2-0.3-3.3-0.5-3.9c-0.3-0.8-2.1-1.8-2-3c1.4,1,2.8,3.6,4.2,4.4c0.4,0.2,1.2,0.5,1-0.3l-6.8-8.5l-2-0.1l-0.7-2.8
			c-1.5-0.2-0.1,2-0.3,2.8l-0.7-2.1l-1,0c-0.8,0.7,1.6,4.7,1.7,5.5c0.1,0.7-0.3,1.2-0.1,1.8c0.2,0.7,1.4,1.7,1.9,2.3l-0.7,0.7
			l0.4,1.2l-4.2-5.2l-0.7,0.7l-1.8-2.8l2.2,5.7l1.2,4.8c-2-2.1-5.7-10.9-5.1-13.4c0.1-0.3,0.7-0.2,0.7-0.4c0-0.1-0.5-1.9-0.6-2.2
			c-0.3-0.7-0.9-0.3-1.2-0.6c-0.2-0.3-1.9-4.5-1.7-4.7c3.5,2,7.4,0.1,11.2,0L158.3,257L158.3,257z M15.9,238.2L30,194.4
			c0.1-0.3,0.1-0.6,0-0.9l-14.1-43.9h23.9v74.6c0,0.1,0,0.2,0,0.3c0,0,0,0,0,0.1c0,0,0,0,0,0.1c0,0,0,0.1,0,0.1c0,0,0,0.1,0.1,0.1
			c0,0,0,0.1,0.1,0.1c0,0,0,0,0,0c0,0,0,0,0,0c0,0,0.1,0.1,0.1,0.1c0,0,0,0,0.1,0.1c0,0,0,0,0.1,0.1c0,0,0,0,0.1,0l16.4,12.8
			L15.9,238.2L15.9,238.2z M59.3,236.7l-2.9-2.3l-11.2-8.8h14.1V236.7z M342.9,118.9c1.3-0.5,7.1-2.1,5.7-4.3
			c-1.6-1.5-3.6,0.1-5.4,0.3c0,0,2.7-3.5,3.4-5.4c0.3-0.8,1.5-4.3,0.2-4.5c-0.6-0.1-6.5,4.7-7.3,5.5c-1.6,1.8-2,3.7-3.2,5.4
			c-1,1.5-6.1,3-8.2,3.6c-7.5,2.3-15.2,3.8-22.7,6c-0.3,0.1-0.6-0.3-0.4-0.5c0,0,4.4-7.3,5.6-9.6c4.2-8.4,7.3-14.8,10.1-22.9
			c0.2-0.5,0.6-0.8,1-1c2.4-0.8,5.7-3.7,7.3-4.2c0.9-0.2,5.1,0.1,6.2,0.3c1.2,0.2,5,3.6,6.6,4.5c2.7,1.5,11,5.1,13.9,4.4
			c0,0,0.1-0.1,0.1-0.1c7.1,10.8,12.8,22.6,16.9,35.2h-65.3c4.8-1.4,10-3.1,12.2-3.9c5-1.7,9.8-3.9,14.9-5.6c2-0.4,3,1,4.5,1.8
			c3.2,1.6,6.3,2.6,9.9,2.4c0.3,0,0.6-0.3,0.5-0.7C349.2,123.7,344.3,119.2,342.9,118.9L342.9,118.9z M289.9,82.4
			c1.5,0,2.7,1.2,2.7,2.7c0,1.5-1.2,2.7-2.7,2.7c-1.5,0-2.7-1.2-2.7-2.7C287.2,83.6,288.4,82.4,289.9,82.4z M294.4,48.7
			c-0.3,0.3-0.7,0.2-0.9-0.2c-0.2-0.6-0.6-1.5-0.8-2.6c-0.3-1-0.4-3.5-0.5-4.4c2.1,0.9,4.1,1.9,6.1,3
			C296.8,45.5,295.8,47.3,294.4,48.7L294.4,48.7z M335.5,76.9c-3.2,3.4-7.7,6.3-12,8.3c-0.3,0.2-0.7-0.1-0.6-0.5
			c0.8-4.3,2.2-8.5,3.2-12.8c0.4-1.8,1.4-5.8,1.6-7.8c3.6,3.1,7.1,6.4,10.5,9.8C337.1,74.9,335.8,76.6,335.5,76.9L335.5,76.9z
			 M349.9,87.8c-4.7-3.3-9.9-4.1-15.7-4.3c2.1-2.2,4.6-4.4,6.2-7.1C343.8,80,347,83.8,349.9,87.8L349.9,87.8z M301.2,51.2
			c-0.9,5.6,4.4,8.2,9.3,6.8c1.2-0.3,3.9-2,4.5-3.6c2.9,2,5.7,4.1,8.4,6.2c-0.7,2.7-5.8,21.8-9,30.1c-1,2.7-5.7,12-5.7,12
			c-1-7.9-2-12.8-3.5-18.5c-2.4-9.3-6.7-16.3-7.4-26.1c-0.2-3.5,1.2-6.6,1.8-7.8c0.7-1.4,1.8-2.7,2-4.1c1.2,0.6,2.3,1.3,3.5,1.9
			C304.1,47.7,301.6,49,301.2,51.2L301.2,51.2z M305.1,48.1c2.5,1.5,5,3,7.5,4.6c-0.7,0.5-1.2,1.2-1.7,1.5c-5,3.2-9.7-1-5.6-5.5
			C305.4,48.5,305.3,48.3,305.1,48.1L305.1,48.1z M113.1,83.3c2.2,1.6,8.2,5,8.9,6.4c-7.4-1-13.9,2.5-19,7.5
			C106.2,92.4,109.5,87.8,113.1,83.3z M130.6,101.5c1.6,0,2.8,1.3,2.8,2.8c0,1.6-1.3,2.8-2.8,2.8c-1.6,0-2.8-1.3-2.8-2.8
			C127.8,102.8,129.1,101.5,130.6,101.5z M154.4,79.2c0,1.7-1.3,3-3,3c-1.7,0-3-1.3-3-3s1.3-3,3-3C153,76.2,154.4,77.5,154.4,79.2z
			 M164.9,69.9c-0.8-2.3-2.4-4.1-4.4-5.4c1.2-0.1,2.2,0,2.7,0.2c0.2,0.1,3.4,2.8,3.5,3c0.6,0.8-0.2,0.6-0.9,1.2
			C165.5,69.3,165.2,69.6,164.9,69.9L164.9,69.9z M171.1,74.8c-2.8,1.8-6-2-2.5-3.9C170.7,69.8,173.5,72.3,171.1,74.8z M172.5,66.1
			c0,0.2-0.2,0.4-0.4,0.3c-0.9-0.4-2.9-2.1-3.2-2.3c-5.2-4.2-8.8-11.4-13.1-16.6c5.5-3.1,11.2-5.9,17.1-8.3
			C172,48.2,172.7,56.8,172.5,66.1L172.5,66.1z M144.5,54.4c5.2,5.3,10.4,3,3.2-2.1c1.6-1,3.1-2,4.7-3c1.9,2.5,5.6,9.4,6.2,10.6
			c-6.6-1.6-12.3-1-17,3.9c-0.7,0.7-2.9,3.8-3.8,5.2c-0.3,0.4,0,1,0.4,1.1c0.3,0.1,0.6,0.1,1,0c1.7-0.2,3.9-0.9,6.2-1.7
			c-0.9,1.6-1.4,3.4-1.4,5.3c0,6,4.8,10.8,10.8,10.8c5,0,9.2-3.4,10.4-8c1.8,2,4.8,2.5,7.4,0.8c0.1-0.1,0.2,0,0.3,0
			c0.1,0.2,0,0.6,0.2,2.3c0.1,1.4,1,9.6,1,9.6c-4.3-2.1-7.9-3.5-12.5-1.9c-1.1,0.4-3.3,1.4-5.1,2.4c-1.2,0.7-2,1.2-1.8,1.7
			c0.2,0.9,8.1,2.1,10.1,2.4c0.2,0,0.3,0.3,0.1,0.4c-0.9,0.7-2.2,1.8-3.1,2.9c-0.5,0.6-0.9,1.2-0.8,1.7c0.2,0.6,1.3,0.5,2,0.6
			c0.9,0.1,3.9,0.5,5.3,0.3c3.3-0.4,3.9-0.6,7.6-1.6c0.2-0.1,0.5,0.1,0.6,0.4c1.5,4.6,3,9.3,5,13.7c1.5,3.2,2.9,5.5,4.7,8.6
			c0.1,0.2,0.5,1,0.7,1.5c0.1,0.3-0.2,0.5-0.5,0.4c-5.1-3.3-35.2-22.5-52.4-29.6c-2.7-6.6-6.9-12.1-14.7-12.9
			c-0.7-0.1-2.1-0.2-3.6-0.1C124.3,70.4,133.9,61.7,144.5,54.4L144.5,54.4z M175.1,128c-1.5-1.1-5.9,1.6-7.5,2.1l-0.1-1
			c-0.1-0.9-0.8-1.4-1.3-1.4c-3,0-8.1,3-11.4,4H86.7c2.4-7.4,5.4-14.5,8.9-21.3c1.9-0.3,3.5-2.4,5.2-3.7c4.8-3.5,13.7-7.3,22.1-8.9
			c-0.6,1.1-1,2.4-1,3.8c0,4.4,3.6,8,8,8c4.4,0,8-3.6,8-8c0-1.3-0.3-2.6-0.9-3.7c0.4,0.1,0.7,0.3,1,0.4c7.9,3.6,23.4,13.9,30.3,19.4
			c0.1,0.1,0.4,0.3,0.6,0.5c0.3,0.2,0.1,0.7-0.2,0.7c-5.8,1.1-11.8,0.7-17.4-0.6c-6.8-1.6-18.6-8.3-23.8-1.5
			c-5.3,6.8,1.1,16,8.3,11.6c2.4-1.5,3.4-6,1.1-7.8c-0.2-0.2-0.6-0.2-0.8,0.1c-0.2,0.2-0.2,0.4-0.1,0.6c1.3,3.1-0.6,5.9-3.9,5.4
			c-5-0.7-4.6-8.1,0.3-9.1c4.9-1,11.9,3.3,16.9,4.8c8.4,2.6,16.8,3.2,25.3,0.8c0.3-0.1,0.6,0,0.8,0.2l9.9,8.1c0.3,0,0.6,0.1,0.8,0.1
			h-11.6C175.2,130.4,176,128.6,175.1,128L175.1,128z M264.3,106.2c0-1.6,1.3-2.9,2.9-2.9c1.6,0,2.9,1.3,2.9,2.9
			c0,1.6-1.3,2.9-2.9,2.9S264.3,107.8,264.3,106.2z M253.6,107.4c0,1.5-1.2,2.8-2.8,2.8s-2.8-1.2-2.8-2.8s1.2-2.8,2.8-2.8
			S253.6,105.9,253.6,107.4z M283,131.5c-1.5-2.9-2.8-4.3-4.8-5.1c-2.6-1.1-4.7-1.2-7.4-0.1c-2.1,0.8-3.4,4-3.9,5.3h-24.5
			c0-2.4,0.1-7.3,0.3-9.1c0.2-1.5,0.8-7,1.6-12.6c2.1,2.2,5,3.5,8.2,3.5c2.1,0,4-0.6,5.6-1.5c1.5,1.1,3.4,1.7,5.4,1.7
			c5.1,0,9.2-4.1,9.2-9.2c0-5.1-4.1-9.2-9.2-9.2c-0.6,0-1.2,0.1-1.8,0.2c-0.8-1.2-1.9-2.1-3-2.9c6-1.1,12.1-2,18.1-2.9
			c0.4-0.1,1.5-0.4,1.5-0.9c0-1.1-3.1-2.5-4.7-3c-7.5-2.5-17.2-3.9-24,1c-0.2,0.2-0.5-0.1-0.5-0.3c1.9-8.2,4.8-16.2,7.9-24.1
			c0.1-0.3,0.5-0.4,0.7-0.1c0,0,6.8,7.5,9.1,10.1c0.9,1,1.4,1.6,1.8,1.2c0.9-1,0.5-4.9,0-6.6c-1.4-4.2-4.5-8.1-8.9-8.2
			c-0.6,0-1-0.2-0.8-0.9c0.7-2.6,0.9-3,1.7-5c0.2-0.6,0.2-1.3-0.4-1.5c-0.9-0.3-1.3,0.3-1.9,1.2c-2.7,3.9-6.1,11-7.9,15.6
			c-0.7,1.8-1.2,2.9-1.9,5c-0.3,0.9-0.9,0.9-1.2,0c-2.7-7-3.7-13.6-3.5-21.1c0-0.3,0.2-0.6,0.4-0.8c1.1-0.8,4.2-2.5,4.7-2.8
			c2.7-1.4,6.4-2.7,8.8-4.4l0.8-0.5c0.3-0.2,0.2-0.6-0.1-0.7c-4-1.6-8.2-0.5-11.9,1.3c0-4.9-3.4-8.4-7.4-10.8
			c-1.4-0.8-9.7-4.2-6.9-0.6c1.1,1.3,3.9,5.6,5.3,7.7c1.2,1.8,2.7,3.7,3.4,5.8c-1.9-1.8-3.3-4.2-5.4-5.9c-5.3-4.3-12.6-4.7-18.7-1.9
			c-0.5,0.2-1.4,0.9-0.2,1.4c2.2,0.8,8.7,3.4,10.4,4.1c4.8,2.1,9.3,4.4,13,8c0.2,0.2,0.4,0.4,0.6,0.6c0.2,0.2,0.3,0.5,0.3,0.8l0.1,9
			c0,0.2-0.2,0.3-0.4,0.2c-0.5-0.3-1.4-0.8-1.4-0.8c-2.9-1.6-8.8-3.8-12.5,0.1c-6.5,6.9,2.4,16.3,8.1,11.5c2.9-2.4,2-6.5-1.1-7.8
			c-0.3-0.1-0.6,0-0.7,0.2c-0.1,0.2-0.1,0.5,0.3,0.8c1.2,1,2.2,3.5,0.2,4.9c-2.8,2.1-5.6-0.5-6-3.2c-0.3-2.2,1.1-4.5,4-5.1
			c4.7-0.9,8.8,4.3,10.6,8c0.9,1.8,2.6,6.3,2.3,9c-0.5,4.2-2.7,11.3-4,15.7c-1.6,5.7-1.9,8.5-2.8,12.6c0,0.2-0.3,0.3-0.4,0.1
			l-3.3-5.4c-3.8-4.4-9.5-6.5-15.3-6.9c-1.5-0.1-11.2-0.6-8,2.8l25.2,17.9c0.2,0.1,0.2,0.3,0.2,0.5l0,0.3l-0.2,0.1
			c-1.8-1.1-7.7-5.2-10.3-6.9c-9.2-5.8-18.5-3.6-26.9,2.1c-0.6,0.4-2.6,2.3-3.1,3.1c-0.4,0.7,0.1,1.5,0.8,1.5c2.3,0,6.6-0.1,9.2,0
			c7.8,0.1,19,1.4,26.2,4.3c0.5,0.2,2.1,0.8,2.9,1.3c0.3,0.2,0.5,0.5,0.5,0.8c0.2,1.9-0.4,5.5-0.8,7.7h-28.5c0-0.1,0-0.1,0-0.2
			c-8.4-5.9-14.5-16.9-18.7-26c-3-6.6-7.8-17-3.5-23.7c3.6-5.7,12.3-3.2,10.2,2.9c-1.3,4-6.1,3.2-6.8-0.5c-0.1-0.3-0.2-0.5-0.5-0.5
			l-0.2,0c-0.4,0-0.6,0.3-0.6,0.6c-0.2,2.1,1.5,4.4,3.3,5c5.9,1.9,11.9-6.6,5.4-12.2c-5.3-4.5-11.4-1.2-15,3.5
			c-0.1,0.2-0.4,0.1-0.5-0.1c-1-4.7-1.8-9.5-2.3-14.3c-0.9-9.2-1.5-18.8-1.4-27.8c2-0.8,3.9-1.5,5.9-2.2c-0.6,2-1,6.5-0.5,7.2
			c0.2,0.4,0.8,0.4,1.1,0.2c3.6-3.4,14.4-11.4,14.4-11.4c-0.1,0-0.2,0-0.4,0c10.9-2.5,22.3-3.9,34-3.9c20.1,0,39.3,3.9,56.8,11.1
			c0.2,1.2,0.7,5.5,1.3,9.5c0.4,2.7,1,6.5,1.6,8.9c1,4.4,2.2,8.2,3.3,12.8c0,0.2-0.1,0.4-0.3,0.3c-1.5-0.7-7.7-5-8.7-5.6
			c-1.1-0.6-1.9-0.6-2.2-0.3c-0.5,0.6,0.2,1.7,0.8,2.2c1.7,1.4,5,4.5,7,6.4c-7.3-4-11.3-0.4-14.5,4c-1.2,1.6-1.1,2.3,0.3,2l1.7-0.4
			c1.2-0.2,2.4-0.5,3.7-0.8c-0.7,1.3-1.1,2.8-1.1,4.4c0,5,4.1,9.1,9.1,9.1c3.9,0,7.2-2.5,8.5-5.9c3.6,9.3,4.3,21.6,1.6,32.8
			c-0.8,3.2-9.8,12.8-9.8,12.8s0.2,0.1,0.5,0.2L283,131.5L283,131.5z M229.8,16.5c73.2,0,135,48.5,155.2,115.1h-9.1
			C356,69.8,298.1,25.2,229.8,25.2c-68.3,0-126.2,44.6-146,106.3h-9.1C94.8,65,156.6,16.5,229.8,16.5z M400.3,225.7h14.1l-14.1,11.1
			V225.7z M432.4,193.9l14.5-45.2c0.1-0.4,0.1-0.9-0.2-1.2c-0.3-0.4-0.7-0.6-1.1-0.6h-25.8v-13.9c0-0.4-0.1-0.7-0.4-1
			c-0.3-0.3-0.6-0.4-1-0.4h-30.5C367.6,63.4,304.5,13.7,229.8,13.7C155.1,13.7,92,63.4,71.7,131.5H41.2c-0.4,0-0.7,0.1-1,0.4
			c-0.3,0.3-0.4,0.6-0.4,1v13.9H14c-0.4,0-0.9,0.2-1.1,0.6c-0.3,0.4-0.3,0.8-0.2,1.2l14.5,45.2l-14.5,45.2c-0.1,0.4-0.1,0.9,0.2,1.2
			c0.3,0.4,0.7,0.6,1.1,0.6h46.7c0,0,0.1,0,0.1,0c0.1,0,0.2,0,0.2,0c0.1,0,0.1,0,0.2-0.1c0,0,0.1,0,0.1,0c0,0,0.1,0,0.1-0.1
			c0,0,0.1-0.1,0.1-0.1c0.1-0.1,0.1-0.1,0.2-0.2c0,0,0.1-0.1,0.1-0.1c0-0.1,0.1-0.2,0.1-0.2c0,0,0-0.1,0.1-0.1c0,0,0,0,0,0
			c0-0.1,0-0.2,0.1-0.3c0,0,0-0.1,0-0.1c0,0,0,0,0,0v-13.9h9.6c20.3,68.1,83.4,117.8,158.1,117.8c74.7,0,137.8-49.7,158.1-117.8h9.6
			v13.9c0,0,0,0,0,0c0,0,0,0.1,0,0.1c0,0.1,0,0.2,0.1,0.3c0,0,0,0,0,0c0,0,0,0.1,0.1,0.1c0,0.1,0.1,0.2,0.1,0.2c0,0,0.1,0.1,0.1,0.1
			c0.1,0.1,0.1,0.1,0.2,0.2c0,0,0.1,0.1,0.1,0.1c0,0,0.1,0.1,0.1,0.1c0,0,0.1,0,0.1,0c0.1,0,0.1,0,0.2,0.1c0.1,0,0.2,0,0.2,0
			c0,0,0.1,0,0.1,0h46.7c0.4,0,0.9-0.2,1.1-0.6c0.3-0.4,0.3-0.8,0.2-1.2L432.4,193.9L432.4,193.9z"/>
		<path class="st0" d="M193.9,255.2c-0.3-0.5-5.5-5.6-5.8-5.2c0.2,1.5,1.6,2.6,2.4,3.8C190.8,253.9,195.4,258.2,193.9,255.2
			L193.9,255.2z"/>
		<path class="st0" d="M264.4,304.9l-8-15c1.5,4.7,3.7,9.6,6.5,13.6C263.2,304,263.6,305.1,264.4,304.9L264.4,304.9z"/>
		<path class="st0" d="M269.3,304.5c0.1-0.6-0.2-1-0.4-1.5c-0.6-1.3-2.3-4.6-3-5.7c-0.3-0.4-0.4-1-1.1-0.8c-0.9,1.1,2.5,6.2,3.4,7.2
			C268.5,304.1,268.5,304.7,269.3,304.5z"/>
		<path class="st0" d="M169.5,275.9c0.4-0.4-2.6-5-2.9-5.2c-0.3-0.2-0.7-0.1-1-0.1C165.3,271,168,276.4,169.5,275.9L169.5,275.9z"/>
		<path class="st0" d="M231.8,293c0.5-0.5-3.3-6.3-4.9-5.9c-0.2,0.2,2.7,3.7,3,4.1C230.5,292,230.3,293.1,231.8,293L231.8,293z"/>
		<path class="st0" d="M248.3,294.4c0.4-1.2-3.8-7-4.5-6.3c1.2,1.8,2.1,3.8,3.4,5.5C247.5,294,247.5,294.6,248.3,294.4z"/>
		<path class="st0" d="M154.5,269.6c0-0.8-0.6-5.6-1.2-5.6l-0.8,1.5C153.6,266.6,152.7,269.3,154.5,269.6z"/>
		<path class="st0" d="M249.7,296.5c-0.1,0.6,0.3,0.9,0.6,1.4c0.3,0.6,3.7,5.2,4.3,4.6C254.8,302.2,250.2,296.9,249.7,296.5z"/>
		<path class="st0" d="M163.9,267.8l-1.4-3.5C160.6,264.2,163.3,268.5,163.9,267.8z"/>
		<path class="st0" d="M301.4,282.5l4.4,5.6c0.5-0.4,0.6-0.4,0.4-1.1C305.9,286.1,302.2,281.8,301.4,282.5z"/>
		<path class="st0" d="M290.6,263.5c-0.6-0.2-2.9-1.8-3.1-1.6c0.8,2.1,3.1,3.2,5.2,3.3c0.6,0.1,0.9,0.4,1.4-0.4
			C294.3,263.7,291.2,263.7,290.6,263.5L290.6,263.5z"/>
		<path class="st0" d="M294.4,273.4c-0.2,0.7,0.2,0.9,0.5,1.4c0.2,0.4,3.4,4.2,3.7,3.8C299.5,277.6,295.1,272.7,294.4,273.4
			L294.4,273.4z"/>
		<path class="st0" d="M292.3,262.2l0-1.3c-1.6,0.9-2.7-0.8-4.2-1C287.6,261.5,291.7,263.2,292.3,262.2z"/>
		<path class="st0" d="M324.7,289.2l0.2-1l-3.8-1.8C320.3,287.1,324,290.2,324.7,289.2L324.7,289.2z"/>
		<path class="st0" d="M307.7,291.3c-0.3,1.1,3,4,3.5,3.5C312,293.9,308,291,307.7,291.3z"/>
		<path class="st0" d="M292.4,305.4l3.1,1.6c-1.4-1.9,1.5-4.6-1.4-6.3l0.3,4.5l-3-2.4C290,302.4,291.9,305.1,292.4,305.4
			L292.4,305.4z"/>
		<path class="st0" d="M285.2,305.9c0.7,0.2,0.7-0.6,0.4-1c-0.1-0.2-1.9-1.2-2.4-1.6c-1.2-1.2-2-2.4-3.1-3.6c-0.3-0.4-0.3-1-1.1-0.8
			C279.7,301.2,283,305.3,285.2,305.9L285.2,305.9z"/>
		<path class="st0" d="M291.4,309.6c-0.2-0.4-2.8-3.7-3.2-3.3c-0.2,0.2,1.4,3.6,1.6,3.8C290.3,310.8,291.9,310.7,291.4,309.6
			L291.4,309.6z"/>
		<path class="st0" d="M198.9,259.8c0.3-0.3-1.7-3.1-1.9-3.1C195.7,256.6,197.6,260.3,198.9,259.8z"/>
		<path class="st0" d="M211.6,277.2c0.2,0.1,0.3,0.1,0.5,0.1c0.2,0,0.3,0,0.5-0.1c0.1,0,0.2-0.1,0.2-0.2c0-0.1-0.1-0.2-0.2-0.2
			c-0.1,0-0.2-0.1-0.3-0.1c-0.2-0.1-0.4-0.2-0.5-0.4c-0.1-0.1-0.3-0.3-0.4-0.5c-0.1-0.1-0.2-0.2-0.3-0.2c-0.2,0-0.4-0.1-0.5,0
			c-0.1,0-0.3,0-0.4,0.1c-0.1,0.1-0.1,0.1-0.1,0.2C210.4,276.5,211,276.9,211.6,277.2L211.6,277.2z"/>
		<path class="st0" d="M214.6,276c0.1,0,0.1,0.1,0.2,0.1c0.1,0,0.2,0,0.2,0c0.2,0,0.4,0,0.5-0.1l0.1-0.1c0.1,0,0.1-0.1,0.2-0.1
			l0-0.1l-0.1-0.1c-0.3-0.1-0.6-0.3-0.9-0.4c-0.1,0-0.1-0.1-0.2-0.1c-0.1,0-0.2,0-0.2,0c-0.2,0-0.4,0-0.5,0.1l-0.1,0.1
			c-0.1,0-0.1,0.1-0.2,0.1l0,0.1l0.1,0.1C214,275.7,214.3,275.8,214.6,276L214.6,276z"/>
		<path class="st0" d="M294.9,266.7C294.9,266.7,294.9,266.7,294.9,266.7L294.9,266.7l0.3,0.1c0.1,0.1,0.2,0.1,0.4,0.2c0,0,0,0,0,0
			c0,0,0,0,0,0l0.1,0.1l0.2,0.1c0.1,0.1,0.2,0.2,0.3,0.3c0.2,0.2,0.4,0.3,0.5,0.5c0.2,0.2,0.3,0.4,0.5,0.7c0.1,0.1,0.2,0.2,0.3,0.2
			c0.2,0.1,0.4,0.1,0.5,0.1c0.1,0,0.6-0.1,0.5-0.3c-0.6-1.1-1.6-1.9-2.8-2.3c-0.2-0.1-0.4-0.1-0.5-0.1c-0.1,0-0.3,0-0.4,0.1
			C294.4,266.5,294.7,266.7,294.9,266.7L294.9,266.7z"/>
		<path class="st0" d="M295.8,266.2L295.8,266.2c0.2,0.1,0.4,0.2,0.5,0.3c0.1,0.1,0.2,0.2,0.3,0.3c0.1,0.1,0.2,0.1,0.3,0.1
			c0.2,0,0.4,0,0.5,0l0.2,0c0.1,0,0.2-0.1,0.2-0.1c0.1-0.1,0.1-0.1,0-0.2c-0.3-0.4-0.7-0.6-1.2-0.8c-0.1,0-0.2,0-0.2,0
			c-0.1,0-0.2,0-0.3,0c-0.2,0-0.3,0.1-0.5,0.1c-0.1,0-0.2,0.1-0.2,0.2C295.6,266.1,295.7,266.1,295.8,266.2L295.8,266.2z"/>
		<path class="st0" d="M177.1,264.2c0.2,0.2,0.6,0.4,0.9,0.4c0.1,0,0.6,0,0.4-0.3c-0.8-0.9-1.4-1.9-1.9-3.1
			c-0.1-0.3-0.5-0.4-0.8-0.5c-0.1,0-0.7-0.1-0.6,0.2C175.6,262.1,176.3,263.2,177.1,264.2L177.1,264.2z"/>
		<path class="st0" d="M179.7,265.4c0.2,0.2,0.6,0.3,0.9,0.3c0.1,0,0.3,0,0.3-0.1c0.1-0.1,0-0.2,0-0.2c-0.4-0.3-0.7-0.7-1-1
			c-0.1-0.1-0.1-0.2-0.2-0.3l0-0.1l0,0l-0.1-0.1c-0.1-0.2-0.3-0.4-0.4-0.6c-0.2-0.2-0.5-0.3-0.8-0.3c-0.1,0-0.7,0-0.5,0.3
			C178.3,264,179,264.8,179.7,265.4L179.7,265.4z"/>
		<path class="st0" d="M162.4,255.6c0,0.1,0.1,0.2,0.2,0.2c0.1,0.1,0.3,0.1,0.5,0.1c0.2,0,0.3,0,0.5-0.1c0.1,0,0.2-0.1,0.2-0.2
			c0.1-1-0.1-2-0.6-2.8c-0.1-0.1-0.2-0.1-0.3-0.2c-0.2,0-0.4-0.1-0.5,0c-0.1,0-0.6,0.1-0.5,0.3C162.3,253.7,162.5,254.6,162.4,255.6
			L162.4,255.6z"/>
		<path class="st0" d="M249.8,292.6c0.2,0.2,0.6,0.3,0.9,0.3c0.1,0,0.2,0,0.3-0.1c0-0.1-0.1-0.2-0.1-0.2c-0.2-0.2-0.4-0.4-0.6-0.6
			c-0.2-0.2-0.4-0.5-0.5-0.8c-0.3-0.5-0.5-1.1-0.7-1.7c-0.1-0.4-1.4-0.7-1.3-0.3C248,290.5,248.8,291.7,249.8,292.6L249.8,292.6z"/>
		<path class="st0" d="M244.9,287.5c0.5,0.5,0.9,1.1,1.3,1.7c0.1,0.1,0.2,0.2,0.3,0.2c0.2,0,0.4,0.1,0.5,0c0.1,0,0.6-0.1,0.5-0.3
			c-0.4-0.7-0.9-1.4-1.5-2c-0.1-0.1-0.3-0.1-0.4-0.1c-0.2,0-0.4,0-0.5,0c-0.1,0-0.3,0.1-0.3,0.2c0,0.1,0,0.1,0.1,0.2L244.9,287.5
			L244.9,287.5z"/>
		<path class="st0" d="M260.1,305.7c-0.2-0.2-0.3-0.5-0.4-0.8c0-0.1-0.2-0.2-0.3-0.2c-0.2-0.1-0.3-0.1-0.5-0.1c-0.1,0-0.3,0-0.4,0
			c-0.1,0-0.2,0.1-0.1,0.2c0.3,0.7,0.7,1.3,1.3,1.8c0.1,0.1,0.2,0.2,0.4,0.2c0.2,0.1,0.4,0.1,0.5,0.1c0.1,0,0.3,0,0.3-0.1
			c0.1-0.1,0.1-0.2,0-0.2C260.6,306.3,260.3,306,260.1,305.7L260.1,305.7z"/>
		<path class="st0" d="M279.7,304.8c0.4,0.6,0.8,1.2,1.4,1.7c0.1,0.1,0.3,0.1,0.4,0.1c0.2,0,0.4,0,0.5,0c0.1,0,0.3-0.1,0.3-0.2
			c0-0.1,0-0.1-0.1-0.2l-0.1-0.1c-0.5-0.4-0.9-0.9-1.2-1.4c0-0.1-0.2-0.1-0.3-0.2c-0.2,0-0.4,0-0.5,0
			C280.1,304.5,279.6,304.5,279.7,304.8L279.7,304.8z"/>
		<path class="st0" d="M283.2,307.7c-0.1-0.1-0.2-0.2-0.3-0.2c-0.2-0.1-0.3-0.1-0.5-0.1c-0.1,0-0.3,0-0.4,0c-0.1,0-0.2,0.1-0.1,0.2
			c0.2,0.3,0.3,0.5,0.5,0.8c0.2,0.2,0.4,0.5,0.7,0.7c0.1,0.1,0.3,0.2,0.5,0.2c0.1,0,0.3,0.1,0.5,0c0.1,0,0.2,0,0.2-0.1
			c0-0.1-0.1-0.2-0.1-0.2l0,0c-0.3-0.3-0.6-0.5-0.8-0.9C283.3,307.9,283.3,307.8,283.2,307.7L283.2,307.7z"/>
		<path class="st0" d="M283.7,310.2c-0.1,0.1-0.1,0.2,0,0.2c0.7,0.6,1.4,1.3,1.9,2.1c0.1,0.1,0.3,0.1,0.3,0.1c0.2,0,0.4,0,0.5-0.1
			c0.2,0,0.6-0.2,0.4-0.4c-0.5-0.8-1.1-1.5-1.9-2.1c-0.2-0.2-0.6-0.1-0.9-0.1C283.9,310.1,283.8,310.1,283.7,310.2L283.7,310.2z"/>
		<path class="st0" d="M282.4,299.5c0.1,0.1,0.2,0.1,0.3,0.2c0.2,0,0.4,0,0.5,0l0.2,0c0.1,0,0.2-0.1,0.2-0.1c0.1,0,0.1-0.1,0.1-0.2
			c-0.3-0.4-0.7-0.7-1-1.1c-0.1-0.1-0.2-0.1-0.3-0.2c-0.2,0-0.4,0-0.5,0l-0.2,0c-0.1,0-0.2,0.1-0.2,0.1c-0.1,0-0.1,0.1-0.1,0.2
			L282.4,299.5L282.4,299.5z"/>
		<path class="st0" d="M283.9,303.3c0.1,0.1,0.3,0.1,0.4,0.1c0.2,0,0.4,0,0.5,0c0.2-0.1,0.5-0.2,0.2-0.4c-1-0.9-1.9-1.8-2.7-2.9
			c-0.2-0.2-0.6-0.2-0.9-0.2c-0.1,0-0.6,0.1-0.5,0.4C281.9,301.4,282.9,302.4,283.9,303.3L283.9,303.3z"/>
		<path class="st0" d="M292,302.6c0.3,0.3,0.6,0.6,0.8,0.9c0.1,0.1,0.2,0.1,0.3,0.2c0.2,0,0.4,0.1,0.5,0c0.1,0,0.3,0,0.4-0.1
			c0.1,0,0.1-0.1,0.1-0.2c-0.5-0.7-1.1-1.3-1.7-1.8c-0.1-0.1-0.3-0.1-0.4-0.1c-0.2,0-0.4,0-0.5,0c-0.1,0-0.3,0.1-0.3,0.2
			c0,0.1,0,0.2,0.1,0.2C291.5,302.1,291.8,302.3,292,302.6L292,302.6z"/>
		<path class="st0" d="M188.9,52.6c1.6,0,2.8,1.3,2.8,2.8s-1.3,2.8-2.8,2.8c-1.6,0-2.8-1.3-2.8-2.8
			C186.1,53.8,187.4,52.6,188.9,52.6z M214,44.6c-7.7-10.6-21.4-11-29.7-1.3c0,0,0,0,0,0.1c-4.6,0.5-8.2,4.4-8.2,9.2
			c0,5.1,4.1,9.2,9.2,9.2c5.1,0,9.2-4.1,9.2-9.2c0-4.1-2.6-7.5-6.3-8.7c7.2-0.2,14,0.5,20.9,2.7c1.9,0.6,3.9,1.5,5.8,2.2
			c0.3,0.1,0.7-0.3,0.6-0.6C215.1,46.3,214.7,45.6,214,44.6L214,44.6z"/>
		<path class="st0" d="M99.7,151.3h-3.3c-0.9,0-1.7,0.1-2.4,0.3c-0.7,0.2-1.3,0.4-1.9,0.7c-0.6,0.3-1.1,0.7-1.6,1.2
			c-0.5,0.4-1,0.9-1.6,1.5l-10.4,10.4l-3.5-3.5v-5.9c0-0.9-0.2-1.6-0.5-2.3l0,0c-0.3-0.6-0.8-1.1-1.3-1.4c-0.5-0.3-1-0.6-1.5-0.7
			l0,0c-0.5-0.1-0.9-0.2-1.4-0.2h-6.5c-0.2,0-0.4,0.1-0.5,0.2c-0.1,0.1-0.2,0.3-0.2,0.5v1.5c0,0.2,0.1,0.4,0.2,0.5
			c0.1,0.1,0.3,0.2,0.5,0.2h6.5c0,0,0.2,0,0.4,0.1c0.2,0,0.4,0.1,0.6,0.2c0.2,0.1,0.4,0.3,0.6,0.5c0.1,0.2,0.2,0.5,0.2,1v6.5v9.8
			v6.5c0,0.5-0.1,0.8-0.2,1l0,0c-0.2,0.3-0.4,0.5-0.6,0.6c-0.2,0.1-0.4,0.2-0.6,0.2h0c-0.1,0-0.3,0-0.3,0l-0.1,0l0,0h-6.5
			c-0.2,0-0.4,0.1-0.5,0.2c-0.1,0.1-0.2,0.3-0.2,0.5v1.5c0,0.2,0.1,0.4,0.2,0.5c0.1,0.1,0.3,0.2,0.5,0.2h6.5c0.4,0,0.9-0.1,1.4-0.2
			h0c0.5-0.1,1.1-0.4,1.5-0.8c0.5-0.4,0.9-0.9,1.3-1.5l0,0c0.4-0.7,0.5-1.4,0.5-2.3v-6.5v-6.3L89,179.7c0.6,0.6,1.1,1.1,1.6,1.6l0,0
			c0.5,0.5,1,0.9,1.6,1.2c0.6,0.3,1.2,0.6,1.9,0.7c0.7,0.2,1.5,0.2,2.4,0.2h3.3c0.2,0,0.4-0.1,0.5-0.2c0.1-0.1,0.2-0.3,0.2-0.5v-1.5
			c0-0.2-0.1-0.4-0.2-0.5c-0.1-0.1-0.3-0.2-0.5-0.2h-3.3c-0.7,0-1.3,0-1.7-0.1l0,0c-0.4-0.1-0.8-0.2-1.2-0.4l0,0
			c-0.4-0.2-0.7-0.5-1.1-0.9c-0.4-0.4-0.9-0.9-1.5-1.4l-10.4-10.4L91,156.9c0.6-0.6,1.1-1.1,1.5-1.4h0l0,0c0.4-0.4,0.7-0.6,1.1-0.8
			l0,0c0.4-0.2,0.8-0.3,1.2-0.4c0.4-0.1,1-0.1,1.7-0.1h3.3c0.2,0,0.4-0.1,0.5-0.2c0.1-0.1,0.2-0.3,0.2-0.5V152
			c0-0.2-0.1-0.4-0.2-0.5C100.1,151.4,99.9,151.3,99.7,151.3L99.7,151.3z"/>
		<polygon class="st0" points="94.1,183.2 94.1,183.2 94.1,183.2 		"/>
		<path class="st0" d="M73.3,182.5C73.3,182.5,73.3,182.5,73.3,182.5L73.3,182.5L73.3,182.5z"/>
		<path class="st0" d="M73.3,152.2C73.3,152.2,73.3,152.2,73.3,152.2L73.3,152.2L73.3,152.2z"/>
		<polygon class="st0" points="92.2,182.5 92.2,182.5 92.2,182.5 		"/>
		<path class="st0" d="M162.6,153.9c0.1-0.1,0.2-0.3,0.2-0.5V152c0-0.2-0.1-0.4-0.2-0.5c-0.1-0.1-0.3-0.2-0.5-0.2h-6.5
			c-0.6,0-1.2,0.1-1.9,0.4l0,0c-0.5,0.2-1,0.5-1.4,0.9c-0.4-0.4-0.9-0.7-1.4-0.9l0,0c-0.7-0.2-1.3-0.4-1.9-0.4h-6.5
			c-0.2,0-0.4,0.1-0.5,0.2c-0.1,0.1-0.2,0.3-0.2,0.5v1.5c0,0.2,0.1,0.4,0.2,0.5c0.1,0.1,0.3,0.2,0.5,0.2h6.5c0,0,0.2,0,0.4,0.1
			c0.2,0,0.4,0.1,0.6,0.2c0.2,0.1,0.4,0.3,0.6,0.5c0.1,0.2,0.2,0.5,0.2,1v13c0,1.6-0.3,3.1-0.9,4.5c-0.6,1.4-1.4,2.6-2.5,3.7
			c-1.1,1.1-2.3,1.9-3.7,2.5c-1.4,0.6-2.9,0.9-4.5,0.9c-1.6,0-3.1-0.3-4.5-0.9c-1.4-0.6-2.6-1.4-3.7-2.5c-1.1-1.1-1.9-2.3-2.5-3.7
			c-0.6-1.4-0.9-2.9-0.9-4.5v-13c0-0.5,0.1-0.8,0.2-1c0.2-0.3,0.4-0.5,0.6-0.6c0.2-0.1,0.4-0.2,0.6-0.2c0.1,0,0.2,0,0.3,0l0.1,0l0,0
			h6.5c0.2,0,0.4-0.1,0.5-0.2c0.1-0.1,0.2-0.3,0.2-0.5V152c0-0.2-0.1-0.4-0.2-0.5c-0.1-0.1-0.3-0.2-0.5-0.2h-6.5
			c-0.6,0-1.2,0.1-1.9,0.4l0,0c-0.5,0.2-1,0.5-1.4,0.9c-0.4-0.4-0.9-0.7-1.4-0.9l0,0c-0.7-0.2-1.3-0.4-1.9-0.4h-6.5
			c-0.2,0-0.4,0.1-0.5,0.2c-0.1,0.1-0.2,0.3-0.2,0.5v1.5c0,0.2,0.1,0.4,0.2,0.5c0.1,0.1,0.3,0.2,0.5,0.2h6.5c0,0,0.2,0,0.4,0.1
			c0.2,0,0.4,0.1,0.6,0.2c0.2,0.1,0.4,0.3,0.6,0.6c0.1,0.2,0.2,0.5,0.2,1v13c0,2,0.4,3.9,1.1,5.6c0.7,1.7,1.8,3.3,3.1,4.6
			c1.3,1.3,2.8,2.3,4.6,3.1c1.8,0.8,3.6,1.1,5.6,1.1c2,0,3.9-0.4,5.6-1.1c1.7-0.7,3.3-1.8,4.6-3.1c1.3-1.3,2.3-2.8,3.1-4.6
			c0.8-1.8,1.2-3.6,1.2-5.6v-13c0-0.5,0.1-0.9,0.2-1c0.2-0.3,0.4-0.4,0.6-0.6c0.3-0.1,0.5-0.2,0.6-0.2c0.1,0,0.2,0,0.3,0l0.1,0l0,0
			h6.5C162.3,154.1,162.5,154.1,162.6,153.9L162.6,153.9z"/>
		<path class="st0" d="M224,151.2h-10.1c-0.2,0-0.4,0.1-0.5,0.3l-12.1,15.2l-12.1-15.2c-0.1-0.2-0.3-0.3-0.5-0.3h-10.2
			c-0.2,0-0.4,0.1-0.5,0.2c-0.1,0.1-0.2,0.3-0.2,0.5v1.5c0,0.2,0.1,0.4,0.2,0.5c0.1,0.1,0.3,0.2,0.5,0.2h8.4v24.6
			c0,0.5-0.1,0.8-0.2,1c-0.2,0.3-0.4,0.5-0.6,0.6c-0.2,0.1-0.4,0.2-0.6,0.2h0c-0.1,0-0.3,0-0.3,0l-0.1,0l0,0h-6.5
			c-0.2,0-0.4,0.1-0.5,0.2c-0.1,0.1-0.2,0.3-0.2,0.5v1.5c0,0.2,0.1,0.4,0.2,0.5c0.1,0.1,0.3,0.2,0.5,0.2h6.5c0.6,0,1.2-0.1,1.9-0.4
			c0.5-0.2,1-0.5,1.4-0.9c0.4,0.4,0.9,0.7,1.4,0.9c0.7,0.2,1.3,0.4,1.9,0.4h6.5c0.2,0,0.4-0.1,0.5-0.2c0.1-0.1,0.2-0.3,0.2-0.5v-1.5
			c0-0.2-0.1-0.4-0.2-0.5c-0.1-0.1-0.3-0.2-0.5-0.2h-6.5h0c0,0-0.2,0-0.4-0.1l0,0c-0.2,0-0.4-0.1-0.6-0.2c-0.2-0.1-0.4-0.3-0.6-0.6
			l0,0c-0.1-0.2-0.2-0.5-0.2-1v-22l11,13.8c0.1,0.2,0.3,0.3,0.5,0.3s0.4-0.1,0.5-0.3l11-13.8v22c0,0.5-0.1,0.9-0.2,1l0,0
			c-0.2,0.3-0.4,0.4-0.6,0.5c-0.3,0.1-0.5,0.2-0.6,0.2l0,0c-0.1,0-0.2,0-0.3,0l-0.1,0h0h-6.5c-0.2,0-0.4,0.1-0.5,0.2
			c-0.1,0.1-0.2,0.3-0.2,0.5v1.5c0,0.2,0.1,0.4,0.2,0.5c0.1,0.1,0.3,0.2,0.5,0.2h6.6c0.6,0,1.2-0.1,1.9-0.4l0,0
			c0.5-0.2,1-0.5,1.4-0.8c0.4,0.4,0.9,0.7,1.4,0.8c0.7,0.2,1.3,0.4,1.9,0.4h6.5c0.2,0,0.4-0.1,0.5-0.2c0.1-0.1,0.2-0.3,0.2-0.5v-1.5
			c0-0.2-0.1-0.4-0.2-0.5c-0.1-0.1-0.3-0.2-0.5-0.2h-6.5h0c0,0-0.2,0-0.4-0.1l0,0c-0.2,0-0.4-0.1-0.6-0.2c-0.2-0.1-0.4-0.3-0.6-0.6
			h0c-0.1-0.2-0.2-0.5-0.2-1v-24.6h8.4c0.2,0,0.4-0.1,0.5-0.2c0.1-0.1,0.2-0.3,0.2-0.5v-1.5c0-0.2-0.1-0.4-0.2-0.5
			C224.4,151.3,224.2,151.2,224,151.2L224,151.2z"/>
		<path class="st0" d="M255.4,174.3l7.6-17.2l7.6,17.2H255.4L255.4,174.3z M285,180.6h-8.5l-12.8-28.8c-0.1-0.3-0.4-0.4-0.6-0.4
			c-0.3,0-0.5,0.2-0.6,0.4l-12.8,28.8h-8.5c-0.2,0-0.4,0.1-0.5,0.2c-0.1,0.1-0.2,0.3-0.2,0.5v1.5c0,0.2,0.1,0.4,0.2,0.5
			c0.1,0.1,0.3,0.2,0.5,0.2h9.9c0.3,0,0.5-0.2,0.6-0.4l2.6-5.9h17.7l2.6,5.9c0.1,0.3,0.4,0.4,0.6,0.4h9.9c0.2,0,0.4-0.1,0.5-0.2
			c0.1-0.1,0.2-0.3,0.2-0.5v-1.5c0-0.2-0.1-0.4-0.2-0.5C285.4,180.6,285.2,180.6,285,180.6L285,180.6z"/>
		<path class="st0" d="M325.9,154.3c0.1,0,0.2,0,0.2,0c1.5,0,2.9,0.3,4.2,0.9c1.4,0.6,2.6,1.4,3.7,2.5c1.1,1.1,1.9,2.3,2.5,3.7
			c0.6,1.4,0.9,2.9,0.9,4.5v3.2c0,1.6-0.3,3.1-0.9,4.5c-0.6,1.4-1.4,2.6-2.5,3.7c-1.1,1-2.3,1.9-3.7,2.5c-1.4,0.6-2.9,0.9-4.5,0.9
			h-9.6c-1.6,0-3.1-0.3-4.5-0.9c-1.4-0.6-2.6-1.4-3.7-2.5c-1-1-1.9-2.3-2.5-3.7c-0.6-1.4-0.9-2.9-0.9-4.5v-3.2
			c0-1.6,0.3-3.1,0.9-4.5c0.6-1.4,1.4-2.6,2.5-3.7c1-1.1,2.3-1.9,3.7-2.5c1.3-0.6,2.8-0.9,4.3-0.9c0.1,0,0.2,0,0.2,0L325.9,154.3
			L325.9,154.3z M336.1,155.6c-1.3-1.3-2.8-2.3-4.6-3.1c-1.8-0.8-3.6-1.1-5.6-1.1h-9.6c-1.9,0-3.7,0.4-5.4,1.1
			c-1.7,0.7-3.2,1.7-4.5,2.9c-1.3,1.2-2.4,2.7-3.1,4.3c-0.8,1.7-1.2,3.5-1.3,5.4l0,0v3.8c0,2,0.4,3.9,1.1,5.6
			c0.7,1.7,1.8,3.3,3.1,4.6c1.3,1.3,2.8,2.3,4.6,3.1c1.8,0.8,3.6,1.1,5.6,1.1h9.6c1.9,0,3.7-0.4,5.4-1.1c1.7-0.7,3.2-1.7,4.5-2.9
			c1.3-1.2,2.3-2.7,3.1-4.3c0.8-1.6,1.2-3.3,1.3-5.1c0.1-0.1,0.1-0.2,0.1-0.3v-3.9c0-2-0.4-3.9-1.1-5.6
			C338.4,158.4,337.4,156.9,336.1,155.6L336.1,155.6z"/>
		<path class="st0" d="M402.7,151.3h-6.5c-0.6,0-1.2,0.1-1.9,0.4c-0.5,0.2-1,0.5-1.4,0.8c-0.4-0.4-0.8-0.7-1.4-0.8
			c-0.7-0.2-1.3-0.4-1.9-0.4h-6.5c-0.2,0-0.4,0.1-0.5,0.2c-0.1,0.1-0.2,0.3-0.2,0.5v1.5c0,0.2,0.1,0.4,0.2,0.5
			c0.1,0.1,0.3,0.2,0.5,0.2h6.5c0,0,0.2,0,0.4,0.1h0h0c0.2,0,0.4,0.1,0.6,0.2c0.2,0.1,0.4,0.3,0.6,0.5c0.1,0.2,0.2,0.5,0.2,1v22.3
			L368,151.7l0,0c-0.3-0.3-0.6-0.4-1-0.4h-9.8c-0.2,0-0.4,0.1-0.5,0.2c-0.1,0.1-0.2,0.3-0.2,0.5v1.5c0,0.2,0.1,0.4,0.2,0.5
			c0.1,0.1,0.3,0.2,0.5,0.2h8.4v1.9v22.8c0,0.5-0.1,0.8-0.2,1c-0.2,0.3-0.4,0.4-0.6,0.5l0,0c-0.2,0.1-0.4,0.2-0.6,0.2h0
			c-0.1,0-0.3,0-0.3,0l-0.1,0l0,0h-6.5c-0.2,0-0.4,0.1-0.5,0.2c-0.1,0.1-0.2,0.3-0.2,0.5v1.5c0,0.2,0.1,0.4,0.2,0.5
			c0.1,0.1,0.3,0.2,0.5,0.2h6.5c0.6,0,1.2-0.1,1.9-0.4c0.5-0.2,1-0.5,1.4-0.9c0.4,0.4,0.9,0.7,1.4,0.9c0.7,0.2,1.3,0.4,1.9,0.4h6.5
			c0.2,0,0.4-0.1,0.5-0.2c0.1-0.1,0.2-0.3,0.2-0.5v-1.5c0-0.2-0.1-0.4-0.2-0.5c-0.1-0.1-0.3-0.2-0.5-0.2h-6.5h0c0,0-0.2,0-0.4-0.1
			l0,0c-0.2,0-0.4-0.1-0.6-0.2l0,0c-0.2-0.1-0.4-0.3-0.6-0.5c-0.1-0.2-0.2-0.5-0.2-1v-22.3l23.5,26.5l0,0c0.1,0.1,0.3,0.3,0.5,0.4
			c0.2,0.1,0.4,0.1,0.6,0.1c0.2,0,0.4,0,0.6-0.1c0.2-0.1,0.4-0.3,0.6-0.5c0.2-0.2,0.3-0.5,0.3-0.8v-26c0-0.5,0.1-0.9,0.2-1
			c0.2-0.3,0.4-0.4,0.6-0.5c0.3-0.1,0.5-0.2,0.6-0.2c0.1,0,0.2,0,0.3,0l0.1,0l0,0h6.5c0.2,0,0.4-0.1,0.5-0.2
			c0.1-0.1,0.2-0.3,0.2-0.5V152c0-0.2-0.1-0.4-0.2-0.5C403,151.4,402.9,151.3,402.7,151.3L402.7,151.3z"/>
		<path class="st0" d="M138.4,206.5c-2.3,0-3.6-2.2-3.6-4.6c0-2.5,1.2-4.7,3.6-4.7c2.4,0,3.6,2.3,3.6,4.6
			C142.1,204.4,140.7,206.5,138.4,206.5L138.4,206.5z M138.5,196c-3,0-5.2,2.3-5.2,5.9c0,3.4,2.1,5.7,5.1,5.7c2.9,0,5.2-2.1,5.2-5.9
			C143.6,198.4,141.6,196,138.5,196L138.5,196z"/>
		<path class="st0" d="M161.8,201.5h-1.5v-4.1c0.2-0.1,0.7-0.1,1.4-0.1c1.5,0,2.6,0.7,2.6,2.1C164.4,200.6,163.4,201.5,161.8,201.5
			L161.8,201.5z M163.7,202.1L163.7,202.1c1.2-0.5,2.1-1.4,2.1-2.9c0-0.9-0.3-1.6-0.9-2.1c-0.7-0.6-1.7-0.9-3.3-0.9
			c-1,0-2.1,0.1-2.8,0.2v11.1h1.5v-4.9h1.4c1.3,0.1,1.9,0.6,2.3,2.2c0.3,1.4,0.6,2.4,0.8,2.7h1.5c-0.2-0.4-0.5-1.5-0.9-3.1
			C165.1,203.2,164.6,202.4,163.7,202.1L163.7,202.1z"/>
		<path class="st0" d="M186.2,202.7h2.3v3.4c-0.3,0.2-1,0.3-1.9,0.3c-2.6,0-4.4-1.7-4.4-4.6c0-2.8,1.8-4.5,4.5-4.5
			c1.1,0,1.9,0.2,2.5,0.5l0.4-1.2c-0.5-0.2-1.5-0.5-2.8-0.5c-3.8,0-6.1,2.5-6.1,5.8c0,1.8,0.6,3.3,1.6,4.2c1.1,1.1,2.5,1.5,4.2,1.5
			c1.5,0,2.8-0.4,3.5-0.6v-5.4h-3.7V202.7L186.2,202.7z"/>
		<path class="st0" d="M207.6,202.8l1.1-3.3c0.2-0.7,0.4-1.4,0.6-2h0c0.2,0.7,0.3,1.3,0.6,2.1l1.1,3.2L207.6,202.8L207.6,202.8z
			 M208.5,196.2l-3.8,11.3h1.5l1.2-3.5h4l1.2,3.5h1.6l-3.8-11.3H208.5L208.5,196.2z"/>
		<path class="st0" d="M236.2,200.9c0,1.8,0,3.1,0.2,4.6l0,0c-0.5-1.2-1.2-2.3-2-3.7l-3.6-5.7h-1.6v11.3h1.4v-4.8
			c0-1.9,0-3.2-0.1-4.7l0.1,0c0.6,1.2,1.3,2.5,2.1,3.8l3.6,5.7h1.5v-11.3h-1.4L236.2,200.9L236.2,200.9z"/>
		<polygon class="st0" points="253.5,207.5 255,207.5 255,196.2 253.5,196.2 		"/>
		<path class="st0" d="M276.2,197.2c0.9,0,1.7,0.2,2.3,0.5l0.4-1.2c-0.4-0.2-1.3-0.5-2.7-0.5c-3.5,0-5.9,2.4-5.9,5.9
			c0,3.7,2.4,5.7,5.6,5.7c1.4,0,2.4-0.3,3-0.5l-0.3-1.2c-0.6,0.3-1.5,0.5-2.4,0.5c-2.7,0-4.3-1.8-4.3-4.5
			C271.8,198.9,273.6,197.2,276.2,197.2L276.2,197.2z"/>
		<path class="st0" d="M297.4,201.1c-1.6-0.6-2.2-1.1-2.2-2.2c0-0.8,0.6-1.7,2.1-1.7c1,0,1.8,0.3,2.1,0.5l0.4-1.2
			c-0.5-0.3-1.3-0.6-2.5-0.6c-2.2,0-3.6,1.3-3.6,3.1c0,1.6,1.1,2.5,3,3.2c1.5,0.6,2.1,1.2,2.1,2.2c0,1.1-0.9,1.9-2.4,1.9
			c-1,0-2-0.3-2.6-0.7l-0.4,1.2c0.6,0.4,1.8,0.7,2.9,0.7c2.7,0,3.9-1.5,3.9-3.2C300.3,202.7,299.3,201.8,297.4,201.1L297.4,201.1z"
			/>
	</g>
</g>
</svg>
